PathFileType	4	(X/Y/Z)	C:\Users\Basilio\Documents\Thesis Gigler\squatting_fais\c3dfiles\039\SLS_pre_back2\markers_experimental.trc
DataRate	CameraRate	NumFrames	NumMarkers	Units	OrigDataRate	OrigDataStartFrame	OrigNumFrames
200.000000	200.000000	4	63	mm	200.000000	210	1684
Frame#	Time	FHD			LBHD			RBHD			C7			T10			LSHO			LUUPA			LMUPA			LDUPA			LLEP			LMEP			LRAD			LUL			LRFIN			RSHO			RUPA1			RMUPA			RDUPA			RLEP			RMEP			RRAD			RUL			RUFIN			LASI			RASI			USACR			LSACR			RSACR			LTHI1			LTHI2			LTHI3			LTHI4			LMFC			LTIB1			LTIB2			LTIB3			LTIB4			LLMAL			LMMAL			LHEE			LMT1			LMT2			LMT5			RTHI			RTHI2			RTHI3			RTHI4			RLFC			RMFC			RTIB1			RTIB2			RTIB3			RTIB4			RLMAL			RMMAL			RHEE			RMT1			RMT2			RMT5			LLFC			CLAV			*61			*62			
		X1	Y1	Z1	X2	Y2	Z2	X3	Y3	Z3	X4	Y4	Z4	X5	Y5	Z5	X6	Y6	Z6	X7	Y7	Z7	X8	Y8	Z8	X9	Y9	Z9	X10	Y10	Z10	X11	Y11	Z11	X12	Y12	Z12	X13	Y13	Z13	X14	Y14	Z14	X15	Y15	Z15	X16	Y16	Z16	X17	Y17	Z17	X18	Y18	Z18	X19	Y19	Z19	X20	Y20	Z20	X21	Y21	Z21	X22	Y22	Z22	X23	Y23	Z23	X24	Y24	Z24	X25	Y25	Z25	X26	Y26	Z26	X27	Y27	Z27	X28	Y28	Z28	X29	Y29	Z29	X30	Y30	Z30	X31	Y31	Z31	X32	Y32	Z32	X33	Y33	Z33	X34	Y34	Z34	X35	Y35	Z35	X36	Y36	Z36	X37	Y37	Z37	X38	Y38	Z38	X39	Y39	Z39	X40	Y40	Z40	X41	Y41	Z41	X42	Y42	Z42	X43	Y43	Z43	X44	Y44	Z44	X45	Y45	Z45	X46	Y46	Z46	X47	Y47	Z47	X48	Y48	Z48	X49	Y49	Z49	X50	Y50	Z50	X51	Y51	Z51	X52	Y52	Z52	X53	Y53	Z53	X54	Y54	Z54	X55	Y55	Z55	X56	Y56	Z56	X57	Y57	Z57	X58	Y58	Z58	X59	Y59	Z59	X60	Y60	Z60	X61	Y61	Z61	X62	Y62	Z62	X63	Y63	Z63	

211	1.05	-225.6150970458985	1768.95849609375	-639.1180419921876	-388.8132629394532	1758.53466796875	-754.8695678710939	-357.7706604003907	1757.581665039063	-617.0183105468751	-438.0465393066407	1585.10302734375	-699.5024414062501	-451.2800292968751	1277.00732421875	-734.9886474609376	-373.4060668945313	1600.898193359375	-859.582702636719	-213.4879913330079	1557.967407226563	-975.5526123046877	-187.6998596191407	1589.541381835938	-945.103942871094	-144.0106964111328	1565.635620117188	-977.6593017578127	-76.93554687500001	1572.168334960938	-974.818786621094	-73.19264221191408	1500.217895507813	-944.2554321289065	203.1478424072266	1592.391479492188	-883.4209594726565	202.7120361328126	1603.81640625	-959.1668701171877	278.7603759765626	1636.95263671875	-874.705749511719	-320.4380187988282	1565.263671875	-539.6449584960939	-157.7112426757813	1485.755737304688	-455.3516540527345	-131.7459411621094	1522.26220703125	-477.0187377929689	-88.17543792724611	1484.362060546875	-457.4803161621095	-25.55234527587891	1500.699340820313	-469.4411926269532	-22.04849624633789	1438.451049804688	-516.1741333007814	252.6801300048829	1562.12744140625	-574.2089843750001	261.3321838378907	1545.949462890625	-500.0590820312501	334.2536315917969	1606.317138671875	-572.5223388671876	-297.6892395019532	1102.1328125	-885.2528076171877	-268.3045959472657	1075.60302734375	-663.2794189453126	-463.2315368652345	1148.39111328125	-743.6842041015626	-470.0692138671876	1118.577514648438	-774.4119873046877	-461.486053466797	1112.430297851563	-715.4552612304689	-320.3315429687501	841.445739746094	-1001.159912109375	-269.8233337402344	776.6180419921877	-1024.130859375	-223.4748077392579	787.212829589844	-1021.900634765625	-282.5993652343751	715.6891479492189	-1018.373840332031	-217.3004608154297	577.9263916015626	-926.939392089844	-332.1299438476563	510.970916748047	-1000.156494140625	-402.1931762695314	564.5314941406251	-1008.726135253906	-389.0728149414064	522.9038696289064	-1005.468811035156	-448.0917358398439	485.6380615234376	-952.3982543945315	-631.3855590820314	486.2395935058595	-924.9419555664065	-593.1074218750001	457.9437561035157	-851.6667480468752	-671.2713623046876	534.5690307617189	-859.8779907226565	-631.0095825195314	303.3251037597657	-872.4392089843752	-652.1640014648439	310.5776977539063	-909.4777832031252	-705.1790161132814	350.1923828125001	-934.7025146484377	-298.5554199218751	802.2819824218752	-613.8132324218751	-252.934555053711	752.4889526367189	-616.3629760742189	-221.8474884033204	760.3049316406251	-623.2193603515626	-271.3120422363282	671.1383056640626	-635.0430908203126	-293.1802368164063	533.1051025390626	-672.1622314453126	-257.7903747558594	535.8347778320314	-786.4012451171877	-268.7823486328126	322.7572021484376	-710.4568481445314	-358.8247985839844	263.5434265136719	-709.5843505859376	-314.1377563476563	250.9954528808594	-711.4398193359376	-298.5780334472657	205.7523651123047	-747.9739379882814	-372.8457336425782	116.6980056762696	-735.9525146484376	-339.8636474609376	140.3294525146485	-817.6519165039065	-441.5377502441407	98.30517578125003	-792.0538330078127	-215.9292602539063	56.77796554565431	-803.5408935546877	-220.0654296875001	55.7936248779297	-758.0590820312501	-275.2058105468751	33.34594345092774	-707.9230957031251	-259.1509399414063	629.5529785156251	-1022.946594238281	nan	nan	nan	nan	nan	nan	nan	nan	nan	
212	1.055	-225.7911529541016	1768.9443359375	-639.3552856445314	-389.219940185547	1758.356079101563	-754.8890991210939	-357.9234313964844	1757.444580078125	-617.2232666015626	-438.1195678710939	1584.952270507813	-699.5580444335939	-451.3584899902345	1276.891235351563	-735.0114135742189	-373.5063476562501	1600.792602539063	-859.7326660156252	-213.6287078857422	1557.926391601563	-975.6690063476565	-187.7232971191407	1589.474487304688	-945.2027587890627	-144.0618286132813	1565.619995117188	-977.7586669921877	-76.99774169921876	1572.175903320313	-974.9235839843752	-73.21310424804689	1500.19482421875	-944.4309692382815	203.065658569336	1592.700805664063	-883.5969238281252	202.7018585205079	1603.99853515625	-959.2890625000002	278.6979675292969	1637.261596679688	-874.8859863281252	-320.5030822753907	1565.258056640625	-539.7696533203126	-157.8477935791016	1485.792846679688	-455.4643859863282	-131.515609741211	1522.4384765625	-476.9034423828126	-88.2432098388672	1484.248046875	-457.6248168945314	-25.67913627624512	1500.728271484375	-469.744598388672	-22.12217330932618	1438.524291992188	-516.2318115234376	252.5889739990235	1562.23779296875	-574.2366943359376	261.2648315429688	1546.0400390625	-500.0850524902345	334.1437377929688	1606.41357421875	-572.5230712890626	-297.7967529296876	1102.048950195313	-885.3128051757815	-268.3545837402344	1075.479248046875	-663.3298339843751	-463.355438232422	1148.304321289063	-743.6268920898439	-470.2167053222657	1118.51611328125	-774.361755371094	-461.5329895019532	1112.31591796875	-715.3957519531251	-320.4594116210938	841.3801269531252	-1001.150939941406	-269.9601135253907	776.481628417969	-1024.16748046875	-223.5301818847657	787.142517089844	-1021.958374023438	-282.6859436035157	715.6034545898439	-1018.387329101563	-217.3052825927735	577.8346557617189	-927.019470214844	-332.0977478027344	510.9407653808595	-1000.187683105469	-402.2484436035157	564.5011596679689	-1008.737976074219	-389.037322998047	522.8713989257814	-1005.533813476563	-448.0979003906251	485.6455078125001	-952.3906860351565	-631.4761352539064	486.195037841797	-924.9035644531252	-593.0588378906251	457.9767456054689	-851.6367187500002	-671.2373046875001	534.5842895507814	-859.8515625000002	-631.0496215820314	303.3388061523438	-872.3652343750002	-652.2075805664064	310.5910339355469	-909.412292480469	-705.2005004882814	350.1754455566407	-934.5501098632815	-298.4663085937501	802.1184082031252	-613.9746704101564	-252.7603607177735	752.2792968750001	-616.7103881835939	-221.6774902343751	760.2083740234376	-623.5645141601564	-271.1434326171876	671.0125122070314	-635.3148193359376	-292.9074401855469	533.0670776367189	-672.4853515625001	-257.8453674316407	535.7500000000001	-786.7427368164065	-268.5945739746094	322.6962585449219	-710.9357910156251	-358.6056518554688	263.4926147460938	-709.7359008789064	-313.8903808593751	250.9952545166016	-711.7863159179689	-298.5012207031251	205.7323760986329	-748.4775390625001	-372.7074279785157	116.6706695556641	-736.2525024414064	-339.6399841308594	140.514892578125	-817.8569946289065	-441.5302734375001	98.27030181884768	-792.149108886719	-215.9554443359376	56.40111923217775	-803.6878051757815	-220.0627746582032	55.7148895263672	-758.1841430664064	-275.1745300292969	33.42961502075196	-707.8993530273439	-259.2868041992188	629.5547485351564	-1022.999633789063	nan	nan	nan	nan	nan	nan	nan	nan	nan	
213	1.06	-225.9359588623047	1768.87939453125	-639.4846801757814	-389.2115173339845	1758.189208984375	-755.0734252929689	-358.0762634277344	1757.437133789063	-617.3695068359376	-438.1372070312501	1584.853881835938	-699.8132324218751	-451.4179687500001	1276.81884765625	-734.9802246093751	-373.4357299804688	1600.659301757813	-859.8894653320315	-213.623519897461	1557.851928710938	-975.7633056640627	-187.873519897461	1589.405883789063	-945.3394165039065	-144.1020050048828	1565.646606445313	-977.8479614257815	-76.98509979248048	1572.170166015625	-975.029724121094	-73.21011352539064	1500.127563476563	-944.5635375976565	202.9706115722657	1592.792236328125	-883.7647705078127	202.6299133300782	1604.110717773438	-959.4207763671877	278.6387939453126	1637.289672851563	-874.9930419921877	-320.5668334960938	1565.237548828125	-539.9271240234376	-157.8774108886719	1485.838623046875	-455.5798645019532	-131.6385192871094	1522.431396484375	-476.9458618164064	-88.31175994873048	1484.298583984375	-457.6590270996095	-25.75816726684571	1500.786743164063	-469.8341064453126	-22.20569229125977	1438.53125	-516.2785034179689	252.4814453125001	1562.252319335938	-574.2987670898439	261.1741333007813	1546.033447265625	-500.2190856933595	334.1442565917969	1606.483276367188	-572.6521606445314	-297.8940429687501	1101.970336914063	-885.2962646484377	-268.3836059570313	1075.30224609375	-663.4247436523439	-463.3836059570314	1148.09619140625	-743.6525268554689	-470.3578186035157	1118.407348632813	-774.3078613281252	-461.6259765625001	1112.210571289063	-715.3351440429689	-320.5576171875001	841.2634277343752	-1001.201416015625	-270.0183715820313	776.439636230469	-1024.261474609375	-223.650375366211	787.0584716796877	-1022.020446777344	-282.7518310546876	715.5057373046876	-1018.40625	-216.9172363281251	578.0755615234376	-926.826599121094	-332.1363220214844	510.8476867675782	-1000.239868164063	-402.3246459960939	564.5062866210939	-1008.719909667969	-389.1129455566407	522.9544067382814	-1005.517761230469	-448.1614074707032	485.6056518554689	-952.4787597656252	-631.4470825195314	486.1853942871095	-924.8563232421877	-593.0911254882814	457.9416503906251	-851.6148681640627	-671.2394409179689	534.5891113281251	-859.830261230469	-631.0805664062501	303.3373718261719	-872.2403564453127	-652.1640625000001	310.6032714843751	-909.428405761719	-705.2921142578126	350.1452636718751	-934.4797363281252	-298.3055114746094	801.8801879882815	-614.3162841796876	-252.616683959961	752.0926513671876	-616.9649047851564	-221.4680328369141	760.1096191406251	-623.8883056640626	-270.9091491699219	670.8126831054689	-635.6000366210939	-292.7245788574219	532.9529418945314	-672.7742919921876	-257.9132995605469	535.7470092773439	-787.1673583984377	-268.4568481445313	322.6402587890626	-711.3338012695314	-358.3571166992188	263.3764648437501	-709.9953002929689	-313.5334167480469	250.8832244873047	-712.0902099609376	-298.4378356933594	205.8113098144532	-748.9503784179689	-372.6166076660157	116.7214736938477	-736.5738525390626	-339.8470458984376	140.34326171875	-818.249450683594	-441.3446350097657	98.4955749511719	-792.332458496094	-216.1259918212891	56.29043197631837	-803.9260864257815	-220.0958709716797	55.61621475219728	-758.2734375000001	-275.1585998535157	33.5377540588379	-707.9219360351564	-259.2608032226563	629.4666748046876	-1022.98095703125	nan	nan	nan	nan	nan	nan	nan	nan	nan	
214	1.065	-226.1843872070313	1768.760620117188	-639.9064941406251	-389.2680664062501	1758.066284179688	-755.3339233398439	-358.2236328125001	1757.3671875	-617.4887695312501	-438.317596435547	1584.772827148438	-699.9641723632814	-451.521209716797	1276.613891601563	-734.9692382812501	-373.6147766113282	1600.550903320313	-860.0045166015627	-213.6465454101563	1557.831909179688	-975.923522949219	-187.90625	1589.377563476563	-945.454284667969	-144.1388397216797	1565.569213867188	-977.9726562500002	-77.15658569335939	1572.205810546875	-975.1678466796877	-73.29193115234376	1500.11474609375	-944.7138671875002	202.9066314697266	1592.948120117188	-883.891540527344	202.5601959228516	1604.335693359375	-959.5549316406252	278.5273437500001	1637.516235351563	-875.146179199219	-320.6708679199219	1565.220947265625	-540.0282592773439	-158.4268188476563	1485.498046875	-456.128875732422	-131.69677734375	1522.467041015625	-477.0321655273439	-88.4348831176758	1484.35400390625	-457.7504882812501	-25.79538536071778	1500.865234375	-469.905975341797	-22.2753963470459	1438.513061523438	-516.3751831054689	252.3892364501954	1562.300170898438	-574.2921142578126	261.1154479980469	1546.146606445313	-500.2730102539064	334.0405883789063	1606.527954101563	-572.7128906250001	-297.9476928710938	1101.870727539063	-885.3455200195315	-268.4057312011719	1075.063232421875	-663.4323730468751	-463.4744262695314	1147.982421875	-743.6458129882814	-470.4988708496095	1118.399780273438	-774.2322998046877	-461.7089843750001	1112.019165039063	-715.2514648437501	-320.7426452636719	841.1772460937502	-1001.233032226563	-270.1625061035157	776.330261230469	-1024.289672851563	-223.7188720703126	787.0123291015627	-1022.085632324219	-282.8160400390626	715.4490966796876	-1018.406677246094	-217.3844909667969	577.7498168945314	-927.1267700195315	-332.1528625488282	510.8019104003907	-1000.267578125	-402.2683715820314	564.4198608398439	-1008.748474121094	-389.1670532226564	522.8059692382814	-1005.565368652344	-448.1702575683595	485.5948181152345	-952.4089965820315	-631.4602661132814	486.1466674804689	-924.8591308593752	-593.0689086914064	457.8866577148439	-851.5268554687502	-671.2381591796876	534.5783081054689	-859.7763671875002	-631.1511840820314	303.3179016113282	-872.1364746093752	-652.2594604492189	310.5914916992188	-909.3609008789065	-705.3165893554689	350.1363830566407	-934.412292480469	-298.0588989257813	801.6380004882815	-614.6134033203126	-252.3649902343751	751.9311523437501	-617.2852172851564	-221.1954803466797	759.8870849609376	-624.5902709960939	-270.7592163085938	670.3846435546876	-636.0411987304689	-292.4931640625001	532.8018188476564	-673.0512695312501	-258.0834655761719	535.7245483398439	-787.601013183594	-268.1093139648438	322.5349121093751	-712.0026855468751	-358.1099548339844	263.3174438476563	-710.2499389648439	-313.2731933593751	250.8690338134766	-712.3560180664064	-298.2774047851563	205.7761230468751	-749.5007934570314	-372.5840454101563	116.7278137207032	-736.9419555664064	-340.0444030761719	139.9351196289063	-818.8468017578127	-441.3652954101564	98.46097564697268	-792.4821777343752	-216.1481170654297	56.13039016723634	-804.1035156250002	-220.152084350586	55.50962066650392	-758.4051513671876	-275.1673583984376	33.5809440612793	-707.9721679687501	-259.2900085449219	629.3768920898439	-1023.045471191406	nan	nan	nan	nan	nan	nan	nan	nan	nan	
